PathFileType	3	(X/Y/Z)	D:\minhoCalibration\240510\subject5_KPNP\preferred\preferred03.trc
DataRate	CameraRate	NumFrames	NumMarkers	Units	OrigDataRate	OrigDataStartFrame	OrigNumFrames
200.0	200.0	24	10	mm	200.0	336	191	
Frame#	Time	Left_Ankle_Outer1			Left_Ankle_Inner1			Left_Knee_Outer1			Left_Knee_Inner1			Left_Wrist1			Right_Wrist1			Right_Knee_Inner1			Right_Knee_Outer1			Right_Ankle_Inner1			Right_Ankle_Outer1			
		X1	Y1	Z1	X2	Y2	Z2	X3	Y3	Z3	X4	Y4	Z4	X5	Y5	Z5	X6	Y6	Z6	X7	Y7	Z7	X8	Y8	Z8	X9	Y9	Z9	X10	Y10	Z10	
336	1.67	-582.35309	83.933701	-598.61658	-603.59076	99.420143	-549.46576	-393.53195	527.42004	-582.65918	-415.16049	511.85263	-491.63947	-506.54291	964.10425	-714.93726	-504.4136	1192.9156	-471.24115	-402.68399	1030.0496	-31.580887	-412.34586	1115.421	-54.82317	-419.01361	999.65271	415.14023	-468.83163	1085.3662	405.65921
337	1.675	-581.85663	84.325317	-598.76544	-603.44928	99.662514	-549.62897	-393.44672	528.08252	-578.82806	-416.69861	512.12927	-488.47073	-505.05685	964.72394	-710.98364	-507.42853	1194.6783	-469.54245	-406.14822	1030.3123	-29.486248	-413.48685	1115.265	-53.294811	-418.36584	998.11249	415.33401	-473.25723	1080.5813	407.54181
338	1.68	-581.34143	84.718048	-598.91602	-603.35681	99.783005	-549.89307	-393.55389	528.77026	-575.07477	-418.54654	512.55597	-485.26483	-502.3306	964.4248	-710.23438	-510.29636	1196.0504	-470.04437	-410.21619	1030.6879	-28.036917	-415.95761	1115.5775	-51.541298	-417.96613	995.33002	414.73581	-476.4473	1075.5494	409.28928
339	1.685	-580.88141	85.036186	-599.14032	-603.05267	99.596565	-550.48749	-393.96893	529.42529	-571.34387	-420.56094	513.172	-481.95514	-500.79276	964.13348	-707.16656	-513.06427	1197.4049	-468.90018	-414.17603	1031.3677	-26.981159	-420.30087	1116.5077	-49.503151	-417.54648	992.9588	416.00412	-479.0491	1070.5884	411.186
340	1.69	-580.49133	85.281479	-599.34204	-602.90015	99.743332	-551.25104	-394.49402	530.12396	-567.86554	-422.95068	513.39569	-479.51355	-498.82233	964.53778	-704.00214	-515.37054	1198.7319	-468.64633	-416.74454	1032.448	-26.421511	-426.68616	1117.713	-47.079166	-417.08875	990.28625	417.00156	-481.70593	1065.5713	413.25015
341	1.695	-580.22192	85.483337	-599.47504	-603.39935	99.657478	-551.02551	-395.25885	530.73718	-564.45319	-425.31836	513.7829	-476.9614	-496.65018	963.58844	-701.74609	-517.47968	1199.7396	-469.44867	-420.98206	1033.0042	-23.157795	-434.51407	1118.493	-44.35463	-416.41193	987.67004	417.89771	-483.60187	1060.2007	414.71118
342	1.7	-580.01208	85.542656	-599.47961	-603.59772	99.492867	-551.26685	-396.06238	531.16998	-561.36792	-427.85382	514.15704	-474.45868	-494.15497	963.58472	-699.46112	-519.38	1200.7673	-469.22165	-422.66733	1034.1754	-21.059999	-443.2688	1118.6974	-41.406555	-415.72867	984.96405	418.81088	-485.5618	1054.7748	416.20459
343	1.705	-579.92407	85.593132	-599.46497	-604.04865	98.976593	-551.05157	-396.90073	531.48248	-558.52252	-430.21252	514.38879	-472.35837	-492.97601	962.69586	-696.33429	-521.12244	1201.8916	-468.65005	-423.99619	1035.3512	-19.021843	-451.88425	1117.7789	-38.682323	-415.16711	982.07776	419.24078	-487.33115	1049.3287	417.76331
344	1.71	-580.05383	85.493813	-599.3501	-604.42639	98.608513	-551.11566	-397.75943	531.57617	-556.00909	-432.37915	514.45758	-470.61298	-490.53458	962.29541	-694.54315	-522.67004	1202.1053	-468.50146	-425.0426	1036.6486	-17.385181	-459.70782	1116.0796	-36.267025	-414.65598	979.12665	419.64267	-488.93927	1043.4963	419.15036
345	1.715	-580.20007	85.431526	-599.11322	-604.79559	98.296066	-551.11243	-398.44815	531.46283	-553.83765	-434.52591	514.5932	-468.90607	-487.84357	961.98798	-693.21332	-524.33453	1202.0114	-467.68402	-423.48257	1038.5323	-17.844322	-466.31152	1114.1167	-34.265663	-414.74933	975.86536	419.40466	-490.57849	1037.8132	420.44836
346	1.72	-580.43616	85.165932	-598.81677	-605.51099	98.094894	-550.82489	-399.08298	531.31482	-552.09448	-436.22455	514.44623	-467.6525	-486.53555	961.16943	-691.38562	-526.06165	1201.9595	-467.03531	-426.27655	1038.2175	-16.170992	-471.58392	1111.9564	-32.71859	-415.60681	972.16016	418.7973	-492.86899	1031.8738	421.75644
347	1.725	-580.77039	84.871407	-598.51837	-605.91797	97.706749	-550.43481	-399.71414	531.04694	-550.6748	-437.67505	514.13928	-466.6683	-484.2789	961.26074	-690.11023	-527.12189	1201.6342	-466.11411	-429.36209	1036.8081	-14.821085	-476.49356	1109.4563	-31.01125	-416.03513	968.1709	419.08582	-495.06525	1025.5164	422.69705
348	1.73	-580.98767	84.608566	-598.31506	-606.36902	97.006638	-550.56207	-400.18527	530.75348	-549.70618	-438.80267	513.72888	-465.99606	-482.80652	960.79919	-688.76764	-528.83051	1200.7947	-465.04333	-432.42862	1034.5519	-13.817709	-480.64697	1106.9028	-29.466879	-416.98456	963.84943	419.28308	-497.29678	1019.0735	423.27658
349	1.735	-581.27051	84.164703	-598.07953	-606.81927	96.545166	-550.3822	-400.59848	530.36438	-549.15778	-439.68924	513.23743	-465.6405	-480.7677	961.15723	-687.50421	-530.39288	1200.0087	-463.56305	-435.24515	1032.0167	-12.819371	-484.40826	1103.9529	-27.960104	-418.56207	958.93695	419.55246	-500.19669	1012.5663	423.99594
350	1.74	-581.59668	83.705589	-597.88043	-607.32715	95.972809	-550.33124	-401.03256	529.76532	-549.00775	-440.28607	512.68225	-465.53568	-479.43942	961.21112	-686.29407	-532.40417	1198.2078	-462.07965	-437.83276	1029.274	-12.011407	-487.77432	1100.6022	-26.770874	-420.53906	953.8349	419.58661	-503.16083	1005.6058	424.32062
351	1.745	-581.69684	83.313095	-597.83221	-606.52643	95.533859	-550.69403	-401.37308	529.12756	-549.21613	-440.65094	512.11407	-465.68161	-477.57028	961.71521	-685.4668	-534.43481	1196.6346	-460.31143	-440.34662	1026.3087	-11.315079	-491.19061	1097.1426	-25.529263	-422.88791	948.09265	419.64307	-506.32922	998.29657	424.45795
352	1.75	-581.69373	82.787666	-597.87732	-607.83954	94.861549	-549.75763	-401.46796	528.57898	-549.70074	-440.72253	511.54584	-466.08588	-476.22574	961.58923	-684.46686	-536.71954	1194.8401	-458.444	-442.7923	1023.153	-10.864229	-494.55319	1093.5427	-24.434435	-425.59723	941.85852	419.53299	-509.82092	990.57501	424.634
353	1.755	-581.54913	82.317497	-597.96973	-607.38599	94.552895	-550.25018	-401.49188	527.94342	-550.38611	-440.63501	511.02167	-466.54276	-473.85587	962.31458	-684.16833	-538.9649	1193.1335	-456.66107	-445.26605	1019.7575	-10.549185	-497.59305	1089.7704	-23.579859	-428.70929	935.0896	419.32251	-513.26208	982.54321	424.34018
354	1.76	-581.45209	81.90052	-598.19696	-607.63013	94.274734	-550.55011	-401.57498	527.22632	-551.29242	-440.3988	510.4053	-467.14252	-472.09058	963.10852	-683.32898	-541.44733	1190.9977	-455.11966	-447.48627	1015.9562	-10.531087	-500.58765	1085.9094	-22.888849	-431.92032	927.73248	418.81799	-517.0437	974.05109	424.02499
355	1.765	-581.38208	81.431778	-598.33606	-607.75421	93.726242	-551.03436	-401.5928	526.55829	-552.11481	-440.08047	509.80289	-467.76318	-470.33444	963.43829	-682.62891	-543.9563	1189.2325	-453.06079	-450.53812	1012.0604	-10.140946	-503.46429	1081.8331	-22.352205	-435.38049	919.83728	418.20267	-521.28607	964.98541	423.58875
356	1.77	-581.14868	81.037796	-598.6236	-607.61017	93.376129	-551.43433	-401.47528	525.82739	-552.99756	-439.72577	509.22769	-468.37094	-468.38193	963.75616	-682.18286	-546.16394	1187.5126	-451.88232	-453.25018	1007.7703	-10.081528	-506.32639	1077.5502	-21.958273	-439.11697	911.58478	417.35941	-525.61835	955.69141	422.96274
357	1.775	-581.06427	80.711647	-598.82507	-607.56464	93.070839	-551.82831	-401.1662	525.22797	-553.80646	-439.29047	508.61539	-468.98865	-465.33362	964.68091	-682.58948	-547.68433	1185.8058	-451.78204	-455.97659	1003.1918	-10.198828	-509.16766	1073.0524	-21.715498	-443.22745	902.66119	416.13776	-530.30591	946.13885	422.09494
358	1.78	-580.89343	80.533089	-598.93762	-607.61859	92.946373	-551.93188	-400.83228	524.6369	-554.53864	-438.88626	508.12323	-469.47137	-463.25699	965.30182	-682.03186	-551.04205	1185.5527	-449.15903	-458.0192	998.7652	-11.030794	-511.96878	1068.4742	-21.517262	-447.48657	893.37909	414.80078	-534.38477	935.47113	420.23843
359	1.785	-580.86487	80.493202	-599.00751	-607.66766	92.782402	-552.16522	-400.45352	524.112	-555.10229	-438.41641	507.67719	-469.9697	-460.89163	966.03033	-681.49146	-552.93158	1184.7068	-449.09464	-461.57144	993.34772	-10.608542	-514.58191	1063.7946	-21.412384	-452.02084	883.50049	413.17822	-539.60486	925.04401	418.81375
